<svg width="32" height="32" viewBox="0 0 32 32" fill="none" xmlns="http://www.w3.org/2000/svg">
<rect width="32" height="32" rx="16" fill="white"/>
<g clip-path="url(#clip0_10_4)">
<path d="M26.6858 24.5C25.3518 24.5 24.5605 23.8173 24.5 22.834H25.7756C25.7756 23.1618 25.9572 23.5981 26.7463 23.6253C27.2933 23.6253 27.596 23.2975 27.596 23.0512C27.5355 22.6691 27.0491 22.6419 26.5647 22.5584C26.127 22.5067 25.6981 22.3972 25.2892 22.2327C25.0812 22.1163 24.9091 21.9454 24.7913 21.7382C24.6736 21.5311 24.6147 21.2956 24.6211 21.0574C24.6211 20.1827 25.3518 19.5 26.6253 19.5C27.8403 19.5 28.6294 20.1284 28.6879 21.0845H27.4749C27.4749 20.8403 27.4144 20.429 26.6858 20.429C26.1994 20.429 25.8967 20.5104 25.8361 20.8653C25.8361 21.358 26.8674 21.3309 27.6566 21.5209C28.3851 21.713 28.8716 22.1764 28.8716 22.834C28.8716 24.0365 27.9008 24.5 26.6858 24.5Z" fill="#1A2530"/>
<path d="M20.6086 22.2182C20.6086 22.9115 21.1598 23.4816 21.8758 23.4816C22.5368 23.4816 23.1411 22.9115 23.1411 22.2182C23.1297 21.8864 22.9927 21.5713 22.7578 21.3368C22.5229 21.1022 22.2076 20.9657 21.8758 20.9548C21.5408 20.9563 21.2199 21.0898 20.9827 21.3263C20.7455 21.5628 20.6111 21.8833 20.6086 22.2182ZM21.819 24.4988C21.5206 24.4991 21.2251 24.4401 20.9496 24.3253C20.6742 24.2104 20.4243 24.042 20.2144 23.8299C20.0046 23.6177 19.8389 23.3661 19.7271 23.0894C19.6153 22.8127 19.5595 22.5166 19.563 22.2182C19.563 20.9548 20.5537 19.9623 21.819 19.9623C22.3152 19.9623 22.7566 20.0873 23.1411 20.3582V20.0115H24.1885V24.3984H23.1411V24.1256C22.7465 24.3769 22.2867 24.5067 21.819 24.4988ZM15.5456 22.2182C15.5456 22.9115 16.1517 23.4816 16.8127 23.4816C17.5287 23.4816 18.0799 22.9115 18.0799 22.2182C18.0774 21.8833 17.943 21.5628 17.7058 21.3263C17.4686 21.0898 17.1477 20.9563 16.8127 20.9548C16.4808 20.9657 16.1653 21.1021 15.93 21.3366C15.6948 21.5712 15.5574 21.8863 15.5456 22.2182ZM18.0799 18.5H19.1804V24.3984H18.0799V24.1256C17.7088 24.3833 17.2643 24.5142 16.8127 24.4988C15.5456 24.4988 14.5 23.4816 14.5 22.2182C14.5 20.9548 15.5456 19.9623 16.8127 19.9623C17.3071 19.9623 17.7484 20.0873 18.0799 20.3582V18.5Z" fill="#1A2530"/>
<path d="M13.5 24.5V20.5Z" fill="#1A2530"/>
<path d="M13.5 24.5V20.5" stroke="#1A2530"/>
<path d="M8.61709 22.2188C8.61709 22.9122 9.2059 23.4824 9.97074 23.4824C10.6749 23.4824 11.3244 22.9122 11.3244 22.2188C11.3113 21.8869 11.1644 21.5721 10.9132 21.3376C10.662 21.1031 10.3252 20.9665 9.97074 20.9552C9.61292 20.9567 9.27015 21.0902 9.01675 21.3267C8.76335 21.5633 8.61975 21.8838 8.61709 22.2188ZM9.91207 24.4997C9.59313 24.5002 9.27725 24.4414 8.98279 24.3267C8.68832 24.2119 8.42112 24.0436 8.19673 23.8314C7.97234 23.6192 7.79522 23.3673 7.67564 23.0905C7.55606 22.8137 7.49641 22.5174 7.50017 22.2188C7.50017 20.9552 8.55841 19.9625 9.91207 19.9625C10.4402 19.9625 10.9116 20.0876 11.3244 20.3585V18.5H12.5V24.3993H11.3244V24.1265C10.9026 24.3773 10.4117 24.507 9.91207 24.4997Z" fill="#1A2530"/>
<path d="M3.61696 21.9864C3.61696 22.7505 4.26447 23.3789 4.96864 23.3789C5.73553 23.3789 6.32234 22.7505 6.32234 21.9864C6.32234 21.2495 5.73553 20.594 4.96864 20.594C4.61434 20.6064 4.27781 20.757 4.02694 21.0155C3.77608 21.2739 3.62956 21.6209 3.61696 21.9864ZM4.90996 24.5C3.61696 24.5 2.5 23.3789 2.5 21.9864C2.5 20.594 3.61696 19.5 4.90996 19.5C5.44011 19.5 5.91157 19.6378 6.32234 19.9364V19.5543H7.5V24.3893H6.32234V24.0887C5.97025 24.3622 5.44011 24.5 4.90996 24.5Z" fill="#1A2530"/>
<path d="M5.5 17.5L6 18.5H12L9.5 15L5.5 17.5Z" fill="#1A2530"/>
<path d="M13.5 18.5V19.5H14.5V18.5H18.5L14 11L10 13.5L13.5 18.5Z" fill="#1A2530"/>
<path d="M18 7L14.5 9.5L20 18.5H25.5L18 7Z" fill="#1A2530"/>
</g>
<defs>
<clipPath id="clip0_10_4">
<rect width="27" height="18" fill="white" transform="translate(2 7)"/>
</clipPath>
</defs>
</svg>
