<svg width="40" height="40" viewBox="0 0 40 40" fill="none" xmlns="http://www.w3.org/2000/svg">
<rect width="40" height="40" rx="12" fill="#1A2530"/>
<path d="M27.5 25.8333V24.4617C27.5 23.7802 27.0851 23.1674 26.4523 22.9143L24.7572 22.2362C23.9524 21.9143 23.0352 22.263 22.6475 23.0383L22.5 23.3333C22.5 23.3333 20.4167 22.9167 18.75 21.25C17.0833 19.5833 16.6667 17.5 16.6667 17.5L16.9617 17.3525C17.737 16.9648 18.0857 16.0476 17.7638 15.2428L17.0857 13.5477C16.8326 12.9149 16.2198 12.5 15.5383 12.5H14.1667C13.2462 12.5 12.5 13.2462 12.5 14.1667C12.5 21.5305 18.4695 27.5 25.8333 27.5C26.7538 27.5 27.5 26.7538 27.5 25.8333Z" stroke="white" stroke-width="1.5" stroke-linejoin="round"/>
</svg>
