<svg width="32" height="32" viewBox="0 0 32 32" fill="none" xmlns="http://www.w3.org/2000/svg">
<rect width="32" height="32" rx="16" fill="white"/>
<g clip-path="url(#clip0_10_6)">
<path d="M18.2211 13.6546L13.1243 19.3092H17.4947L22.5916 13.6546L17.4947 8H13.1243L18.2211 13.6546Z" fill="#1A2530"/>
<path d="M11.5806 12.4451L9.27914 11.6855L10.722 13.6869L9.30298 15.6763L11.5806 14.9167L12.9639 16.9182V14.4465L15.2891 13.6869L12.9639 12.9153V10.4557L11.5806 12.4451ZM5.8465 21.6798C6.04819 21.6798 6.24639 21.7775 6.37852 21.9416L6.42722 22.001L7.04961 21.5715L6.99397 21.5018C6.71928 21.1561 6.29854 20.9571 5.8465 20.9571C5.05024 20.9571 4.40002 21.5821 4.40002 22.3466C4.40002 23.1111 5.05024 23.736 5.8465 23.736C6.29506 23.736 6.71234 23.5405 6.98702 23.2019L7.04266 23.132L6.42023 22.7027L6.37157 22.762C6.23596 22.9261 6.0447 23.0203 5.84305 23.0203C5.47446 23.0203 5.16152 22.7131 5.16152 22.35C5.16501 21.987 5.47792 21.6798 5.8465 21.6798ZM12.5307 22.5014L11.4121 21.0218H10.7009V23.6391H11.3914V22.1734L12.434 23.6391H13.2212V21.0218H12.5307V22.5014ZM15.1999 22.8853C15.1999 22.9062 15.1721 22.9097 15.1582 22.9097C15.1477 22.9097 15.1268 22.9062 15.1164 22.8818L14.5387 21.0218H13.7382L14.5909 23.6391H15.7289L16.5816 21.0218H15.7811L15.1999 22.8853ZM21.6633 22.5677C21.9423 22.4072 22.1027 22.114 22.0783 21.793C22.047 21.3568 21.6667 21.0218 21.2134 21.0218H19.8775V23.6391H20.5751V22.6968H20.889C20.9203 22.6968 20.9483 22.7003 20.9692 22.7283L21.4191 23.6391H22.2039L21.6633 22.5677ZM21.1764 22.0235H20.556V21.7327H21.1764C21.261 21.7327 21.3315 21.7908 21.3315 21.878C21.3315 21.9653 21.261 22.0235 21.1764 22.0235ZM25.532 23.6391H27.6V22.9411H26.2214V22.6271H27.4622V21.9989H26.2214V21.7197H27.6V21.0218H25.532V23.6391ZM23.9386 22.0166C23.5678 21.9332 23.4603 21.8776 23.4603 21.7561V21.7491C23.4603 21.6519 23.5331 21.5755 23.7133 21.5755C23.9524 21.5755 24.1465 21.6519 24.4064 21.8082L24.8223 21.315C24.5311 21.0822 24.1811 20.9571 23.7271 20.9571C23.0826 20.9571 22.6979 21.3184 22.6979 21.8186V21.8255C22.6979 22.3779 23.1519 22.5411 23.7237 22.6696C24.0875 22.753 24.188 22.8155 24.188 22.9267V22.9335C24.188 23.0483 24.0599 23.1177 23.8588 23.1177C23.547 23.1177 23.242 23.0065 22.9787 22.7947L22.5594 23.2914C22.8886 23.5866 23.3667 23.736 23.8415 23.736C24.493 23.736 24.9504 23.4095 24.9504 22.8607V22.8537C24.9504 22.35 24.5554 22.152 23.9386 22.0166ZM8.74598 20.9571C7.9705 20.9571 7.34042 21.5821 7.34042 22.3466C7.34042 23.1146 7.9705 23.736 8.74598 23.736C9.52147 23.736 10.1516 23.1111 10.1516 22.3466C10.1516 21.5786 9.52147 20.9571 8.74598 20.9571ZM8.74598 23.0251C8.37992 23.0251 8.08359 22.7288 8.08359 22.3627C8.08359 21.9967 8.37992 21.7003 8.74598 21.7003C9.11205 21.7003 9.40838 21.9967 9.40838 22.3627C9.40838 22.7288 9.11205 23.0251 8.74598 23.0251ZM17.0987 23.6391H19.1666V22.9411H17.7879V22.6271H19.0287V21.9989H17.7879V21.7197H19.1666V21.0218H17.0987V23.6391Z" fill="#1A2530"/>
</g>
<defs>
<clipPath id="clip0_10_6">
<rect width="24" height="16" fill="white" transform="translate(4 8)"/>
</clipPath>
</defs>
</svg>
