<svg width="32" height="32" viewBox="0 0 32 32" fill="none" xmlns="http://www.w3.org/2000/svg">
<rect width="32" height="32" rx="16" fill="white"/>
<path d="M12.2337 17.333L14.7164 10.353H13.0753L11.9391 13.3821L12.1916 10.353H10.4663L7.98361 17.333H9.58264L10.803 13.9528L10.5926 17.2452L12.2337 17.333ZM14.1693 17.333L16.652 10.353H15.0951L12.5703 17.333H14.1693ZM18.6719 16.8941L18.5877 13.3821L20.9442 10.5286L18.6719 16.8941ZM30.1176 14.4357L22.1224 16.5868L22.3328 15.9283H20.6496L21.1967 14.2601H22.6274L23.0482 12.987L21.6175 13.0748L22.1224 11.67H23.511L23.9739 10.3969H19.4714L17.8303 12.4163L18.6298 10.353H17.0308L14.5481 17.333H16.1892L17.2412 14.3479V17.333H19.3451L11.8129 19.3963C11.0274 19.6305 10.326 19.7329 9.70888 19.7036C9.09169 19.6744 8.6148 19.4988 8.27817 19.1768C7.52073 18.5915 7.2542 17.6989 7.47865 16.499C7.6189 15.7088 7.92747 14.9478 8.40441 14.2162C7.28226 15.4454 6.45468 16.4843 5.9217 17.333C5.33258 18.2403 4.95386 19.1329 4.78554 20.0109C4.61722 20.8889 4.7154 21.606 5.0801 22.162C6.06195 23.8595 8.20802 23.9766 11.5183 22.5132L30.1176 14.4357Z" fill="#1A2530"/>
</svg>
