<svg width="27" height="14" viewBox="0 0 27 14" fill="none" xmlns="http://www.w3.org/2000/svg">
<path d="M8.23367 7.33305L10.7164 0.352966H9.07526L7.93911 3.38206L8.19159 0.352966H6.46631L3.98361 7.33305H5.58264L6.80295 3.95276L6.59255 7.24525L8.23367 7.33305ZM10.1693 7.33305L12.652 0.352966H11.0951L8.5703 7.33305H10.1693ZM14.6719 6.89405L14.5877 3.38206L16.9442 0.528566L14.6719 6.89405ZM26.1176 4.43566L18.1224 6.58675L18.3328 5.92825H16.6496L17.1967 4.26006H18.6274L19.0482 2.98696L17.6175 3.07476L18.1224 1.66996H19.511L19.9739 0.396866H15.4714L13.8303 2.41626L14.6298 0.352966H13.0308L10.5481 7.33305H12.1892L13.2412 4.34786V7.33305H15.3452L7.81287 9.39634C7.02736 9.63046 6.32602 9.73292 5.70888 9.70364C5.09169 9.67436 4.6148 9.49876 4.27817 9.17684C3.52073 8.59153 3.2542 7.69887 3.47865 6.49895C3.6189 5.70875 3.92747 4.94784 4.4044 4.21616C3.28226 5.44535 2.45468 6.48433 1.9217 7.33305C1.33258 8.24033 0.953863 9.13294 0.785544 10.0109C0.617224 10.8889 0.715397 11.606 1.0801 12.162C2.06195 13.8595 4.20802 13.9766 7.51831 12.5132L26.1176 4.43566Z" fill="white"/>
</svg>
