<svg width="22" height="19" viewBox="0 0 22 19" fill="none" xmlns="http://www.w3.org/2000/svg">
<path d="M17.704 15.296C18.323 15.915 18.323 16.918 17.704 17.536C17.085 18.155 16.082 18.155 15.464 17.536C14.845 16.917 14.845 15.914 15.464 15.296C16.083 14.677 17.086 14.677 17.704 15.296" stroke="#707B81" stroke-width="1.5" stroke-linecap="round" stroke-linejoin="round"/>
<path d="M6.70412 15.296C7.32312 15.915 7.32312 16.918 6.70412 17.536C6.08512 18.155 5.08212 18.155 4.46412 17.536C3.84612 16.917 3.84512 15.914 4.46412 15.296C5.08312 14.678 6.08512 14.677 6.70412 15.296" stroke="#707B81" stroke-width="1.5" stroke-linecap="round" stroke-linejoin="round"/>
<path d="M9 1H13C13.552 1 14 1.448 14 2V12H1" stroke="#707B81" stroke-width="1.5" stroke-linecap="round" stroke-linejoin="round"/>
<path d="M4 16.416H2C1.448 16.416 1 15.968 1 15.416V10" stroke="#707B81" stroke-width="1.5" stroke-linecap="round" stroke-linejoin="round"/>
<path d="M14 4H18.323C18.732 4 19.1 4.249 19.251 4.629L20.857 8.643C20.951 8.879 21 9.131 21 9.385V15.333C21 15.885 20.552 16.333 20 16.333H18.169" stroke="#707B81" stroke-width="1.5" stroke-linecap="round" stroke-linejoin="round"/>
<path d="M14.9999 16.42H7.16992" stroke="#707B81" stroke-width="1.5" stroke-linecap="round" stroke-linejoin="round"/>
<path d="M21 11H17V7H20.2" stroke="#707B81" stroke-width="1.5" stroke-linecap="round" stroke-linejoin="round"/>
<path d="M1 1H6" stroke="#707B81" stroke-width="1.5" stroke-linecap="round" stroke-linejoin="round"/>
<path d="M1 4H4" stroke="#707B81" stroke-width="1.5" stroke-linecap="round" stroke-linejoin="round"/>
<path d="M2 7H1" stroke="#707B81" stroke-width="1.5" stroke-linecap="round" stroke-linejoin="round"/>
</svg>
