<svg width="32" height="32" viewBox="0 0 32 32" fill="none" xmlns="http://www.w3.org/2000/svg">
<rect width="32" height="32" rx="16" fill="white"/>
<g clip-path="url(#clip0_10_5)">
<path d="M16.45 10.0411C16.3701 10.0527 16.2934 10.3436 16.1393 10.4952C16.0266 10.6044 15.8856 10.5978 15.8111 10.7329C15.7826 10.7832 15.7918 10.8695 15.7598 10.9521C15.6966 11.1178 15.4753 11.1325 15.4753 11.3128C15.4744 11.5077 15.6597 11.5447 15.8206 11.6831C15.9461 11.7942 15.9581 11.8709 16.1099 11.9249C16.2398 11.9684 16.4327 11.826 16.6065 11.8772C16.7489 11.919 16.8853 11.9493 16.9177 12.0944C16.9461 12.2283 16.9156 12.4353 16.7427 12.4114C16.6844 12.4048 16.4314 12.3207 16.1212 12.3534C15.7465 12.3956 15.319 12.5165 15.2771 12.9303C15.254 13.1613 15.543 13.4338 15.8219 13.3783C16.0145 13.341 15.9234 13.1157 16.0281 13.0065C16.1659 12.8663 16.9461 13.4955 17.6709 13.4955C17.9762 13.4955 18.2033 13.419 18.4288 13.1853C18.45 13.1673 18.4756 13.1292 18.5081 13.1266C18.539 13.1292 18.5925 13.1592 18.6103 13.1719C19.1939 13.6364 19.6355 14.5686 21.7817 14.5793C22.0837 14.581 22.4272 14.7239 22.7082 14.9773C22.9586 15.2064 23.1048 15.5633 23.2472 15.925C23.4622 16.4678 23.8468 16.9959 24.4306 17.5834C24.4623 17.6149 24.9429 17.9847 24.9814 18.0122C24.9873 18.0165 25.0228 18.0998 25.0104 18.1463C24.9962 18.4989 24.9444 19.5232 25.7159 19.5697C25.9045 19.5791 25.8553 19.4478 25.8553 19.3577C25.8548 19.179 25.8219 19.0018 25.9168 18.8189C26.0467 18.5677 25.6413 18.4521 25.6531 17.9088C25.6615 17.5036 25.3178 17.5727 25.1435 17.2641C25.043 17.0853 24.9537 16.9905 24.96 16.7719C24.9994 15.5412 24.6956 14.7325 24.5442 14.5338C24.4259 14.384 24.3282 14.3245 24.4361 14.2552C25.0802 13.8338 25.2262 13.4424 25.2262 13.4424C25.5687 12.6456 25.8765 11.9178 26.3012 11.5973C26.3865 11.531 26.606 11.369 26.7404 11.3055C27.1369 11.1205 27.3452 11.0083 27.4604 10.8975C27.6423 10.722 27.7865 10.3555 27.6117 10.1334C27.3947 9.85938 27.0193 10.0768 26.8539 10.1741C25.67 10.8695 25.4956 12.0964 25.0856 12.801C24.7584 13.3639 24.2265 13.7774 23.7509 13.8112C23.3948 13.8374 23.0102 13.766 22.6277 13.5996C21.6971 13.1957 21.188 12.6743 21.0674 12.582C20.8175 12.391 18.8768 10.5046 17.304 10.4276C17.304 10.4276 17.1088 10.0405 17.0598 10.0344C16.9449 10.0197 16.8272 10.2653 16.7427 10.294C16.6634 10.3199 16.53 10.0281 16.45 10.0411ZM9.5269 21.2992C9.3789 21.2957 9.25317 21.1755 9.25317 21.0269L9.25366 16.1704H7.63676V21.5235C7.63676 21.7862 7.85148 22 8.11504 22H10.9406C11.2059 22 11.4181 21.7862 11.4181 21.5235V16.1703H9.80273L9.80144 21.0269C9.80144 21.1755 9.6757 21.2957 9.5269 21.2992ZM14.9397 16.1704H12.4931C12.2031 16.1704 11.9674 16.4035 11.9674 16.6931V22H13.5859V17.1321C13.5861 17.0967 13.5933 17.0618 13.6072 17.0292C13.621 16.9967 13.6412 16.9672 13.6666 16.9423C13.6921 16.9175 13.7222 16.8979 13.7552 16.8846C13.7883 16.8713 13.8237 16.8645 13.8594 16.8648C14.0103 16.8648 14.1316 16.9802 14.1348 17.128V22H15.7465V17.128C15.7485 16.9802 15.8696 16.8649 16.0204 16.8649C16.1697 16.8649 16.2935 16.9829 16.2945 17.132V22H17.9129V16.6931C17.9129 16.4035 17.6763 16.1703 17.3869 16.1703L14.9397 16.1704ZM6.55844 20.5352H4.92497V22H3.3092V16.1704H6.56869C6.86045 16.1704 7.08825 16.4051 7.08825 16.6955V20.0096C7.08845 20.0786 7.07488 20.147 7.04833 20.2108C7.02179 20.2746 6.98278 20.3326 6.93354 20.3814C6.88432 20.4302 6.82583 20.469 6.76145 20.4954C6.69707 20.5218 6.62813 20.5352 6.55844 20.5352ZM5.47339 17.1422C5.47387 17.1062 5.46716 17.0704 5.45366 17.0369C5.44015 17.0035 5.4201 16.973 5.39466 16.9472C5.36922 16.9215 5.3389 16.9009 5.30542 16.8868C5.27194 16.8726 5.23598 16.8651 5.19958 16.8648H4.92505V19.8133H5.19958C5.3423 19.8133 5.47469 19.701 5.47339 19.5395V17.1422Z" fill="#1A2530"/>
<path d="M20.6257 22V20.5365H20.0763V22H18.4612V16.6931C18.4612 16.4035 18.6969 16.1703 18.9869 16.1703H21.7152C22.0057 16.1703 22.2413 16.4035 22.2413 16.6931V22H20.6257ZM20.6257 19.8144V17.13C20.6218 16.9817 20.5012 16.8677 20.3503 16.8677C20.201 16.8677 20.0778 16.9862 20.0763 17.1343V19.8144H20.6257Z" fill="#1A2530"/>
</g>
<defs>
<clipPath id="clip0_10_5">
<rect width="25" height="12" fill="white" transform="translate(3 10)"/>
</clipPath>
</defs>
</svg>
