<svg width="32" height="32" viewBox="0 0 32 32" fill="none" xmlns="http://www.w3.org/2000/svg">
<rect width="32" height="32" rx="16" fill="white"/>
<path d="M21.612 14.2349C23.56 13.3785 24.8321 12.0923 24.9015 10.6655C24.9015 10.6655 24.3872 10.2695 22.7266 9.65892C21.2685 9.12272 20.156 9 20.156 9L20.1611 12.1791C20.1611 12.6541 19.9703 13.139 19.61 13.5683C18.5078 13.3023 17.2898 13.1531 16.0121 13.1527C14.7336 13.1531 13.5134 13.3028 12.4099 13.5691C12.0497 13.1398 11.8584 12.6545 11.8584 12.1791L11.8632 9C11.8632 9 10.7515 9.12272 9.2925 9.65892C7.63202 10.2695 7.11858 10.6655 7.11858 10.6655C7.18738 12.0927 8.45994 13.3793 10.4101 14.2357C8.46162 15.0922 7.18962 16.3783 7.12066 17.8047C7.12066 17.8047 7.63458 18.2011 9.29506 18.8113C10.7537 19.3475 11.8657 19.4702 11.8657 19.4702L11.8606 16.2911C11.8606 15.816 12.0514 15.3308 12.4121 14.9019C13.5142 15.1683 14.732 15.3171 16.0095 15.3171C17.2885 15.3171 18.5087 15.1678 19.6118 14.9006C19.972 15.3299 20.1629 15.816 20.1629 16.2911L20.1586 19.4702C20.1586 19.4702 21.2706 19.3475 22.7292 18.8113C24.3897 18.2011 24.9035 17.8047 24.9035 17.8047C24.8343 16.3775 23.5618 15.091 21.612 14.2349ZM16.0104 14.9502H16.0091L15.9728 14.9494C14.8192 14.9494 13.8788 14.6672 13.189 14.2357C13.8788 13.8035 14.8197 13.5208 15.9754 13.5208L16.0109 13.5204H16.0126L16.0489 13.5208C17.2029 13.5208 18.1429 13.8031 18.8326 14.2345C18.1429 14.6663 17.202 14.9493 16.0468 14.9493L16.0104 14.9502ZM4.56866 22.9923C4.00986 22.9923 4.00002 22.5664 4.00002 22.4023V21.6275C4.00002 21.5805 3.99618 21.518 4.09586 21.518H4.38466C4.47842 21.518 4.47242 21.5848 4.47242 21.6276V22.4022C4.47242 22.4574 4.48266 22.6054 4.68594 22.6054H5.17026C5.36962 22.6054 5.38122 22.4575 5.38122 22.4023V21.6275C5.38122 21.5848 5.37562 21.518 5.4689 21.518H5.75986C5.86546 21.518 5.8561 21.5848 5.8561 21.6276V22.4022C5.8561 22.5664 5.84626 22.9923 5.28538 22.9923H4.56866ZM7.2449 22.8988C7.04762 22.6333 6.7661 22.299 6.47906 21.9457V22.889C6.47906 22.9301 6.4893 22.9925 6.3913 22.9925H6.1217C6.02418 22.9925 6.03578 22.9301 6.03578 22.889V21.6276C6.03578 21.5849 6.03146 21.5181 6.12178 21.5181H6.64714C6.79562 21.5181 7.00698 21.817 7.14562 22.0141C7.25258 22.1646 7.45026 22.3908 7.5829 22.5606V21.6276C7.5829 21.5849 7.5769 21.5181 7.6749 21.5181H7.96754C8.0617 21.5181 8.0557 21.5849 8.0557 21.6276V22.9925H7.51658C7.40106 22.9925 7.35018 23.0002 7.2449 22.8988ZM9.46594 22.6046C9.7021 22.6046 9.68498 22.3781 9.68498 22.2745C9.68498 21.9269 9.58706 21.9132 9.43082 21.9132H8.6885V22.6046H9.46594ZM8.23282 22.9928V21.5206H9.53482C9.61442 21.5206 10.1475 21.5113 10.1475 22.071C10.1475 22.6434 10.2099 22.9928 9.54642 22.9928H8.84466L8.69234 22.6846V22.9928H8.23282ZM10.6575 21.5301H11.8568C11.9587 21.5301 11.945 21.5964 11.945 21.7196C11.945 21.8342 11.9604 21.8986 11.8568 21.8986H10.9091C10.8839 21.8986 10.7983 21.8851 10.7983 21.9748C10.7983 22.0646 10.7807 22.1001 10.8762 22.1001H11.7143C11.7143 22.1001 11.8355 22.3305 11.8491 22.3695C11.8688 22.4046 11.8667 22.4379 11.7927 22.4379H10.925L10.7902 22.1762V22.5627C10.7902 22.6525 10.8706 22.6349 10.8937 22.6349H11.8783C11.9762 22.6349 11.9681 22.7029 11.9681 22.8141C11.9681 22.9338 11.9762 22.9997 11.8783 22.9997H10.6319C10.5283 22.9997 10.3255 22.9685 10.3255 22.6448V21.8324C10.3255 21.7486 10.3704 21.5301 10.6575 21.5301ZM13.3136 21.909H12.7296C12.6325 21.909 12.6358 21.9424 12.6358 21.9719V22.2353H13.2375C13.5289 22.2353 13.5289 22.1625 13.5289 22.0865C13.5289 21.9343 13.5173 21.909 13.3136 21.909ZM12.2688 21.5205H13.5815C13.7573 21.5205 14.0128 21.5186 14.0128 21.9929C14.0128 22.3032 13.9469 22.3187 13.8061 22.4145C14.0427 22.4555 14.0115 22.7578 14.0115 22.9143C14.0115 22.9942 13.9823 22.9926 13.9584 22.9926H13.5738C13.4933 22.9926 13.513 22.8655 13.513 22.7993C13.513 22.6175 13.4116 22.6257 13.3722 22.6257H12.8058C12.7514 22.5316 12.6457 22.3208 12.6457 22.3208V22.9318C12.6457 22.9849 12.5927 22.9926 12.5734 22.9926H12.1871C12.208 22.9926 12.1473 22.9964 12.1473 22.9434V21.6474C12.1473 21.5555 12.2119 21.5205 12.2688 21.5205ZM16.1168 21.9378L15.8746 22.3791L15.896 22.4005H16.3474L16.371 22.3791C16.3551 22.3458 16.1601 21.9751 16.1404 21.9356L16.1168 21.9378ZM16.273 21.5304C16.3688 21.5304 16.4621 21.5731 16.564 21.7702C16.6328 21.9104 17.1095 22.7712 17.2087 22.9513V23H16.7125L16.5696 22.7421H15.9662C15.9662 22.7421 15.8648 22.5099 15.8357 22.4458C15.7985 22.5061 15.5992 22.8849 15.5302 22.9999H15.0326V22.9688C15.1341 22.7777 15.8276 21.5304 15.8276 21.5304H16.273ZM18.5105 21.909H17.9265C17.8288 21.909 17.8327 21.9424 17.8327 21.9719V22.2353H18.4343C18.7256 22.2353 18.7256 22.1625 18.7256 22.0865C18.7256 21.9343 18.7141 21.909 18.5105 21.909ZM17.4656 21.5205H18.7783C18.9541 21.5205 19.2101 21.5186 19.2101 21.9929C19.2101 22.3032 19.1441 22.3187 19.0028 22.4145C19.239 22.4555 19.2079 22.7578 19.2079 22.9143C19.2079 22.9942 19.1787 22.9926 19.1552 22.9926H18.7706C18.6901 22.9926 18.7097 22.8655 18.7097 22.7993C18.7097 22.6175 18.6084 22.6257 18.569 22.6257H18.0025C17.9478 22.5316 17.8421 22.3208 17.8421 22.3208V22.9318C17.8421 22.9849 17.7899 22.9926 17.7702 22.9926H17.3835C17.4048 22.9926 17.3445 22.9964 17.3445 22.9434V21.6474C17.3445 21.5555 17.4092 21.5205 17.4656 21.5205ZM20.3568 22.9923C20.2588 22.8089 19.9872 22.3031 19.8036 21.9717V22.8889C19.8036 22.9299 19.8092 22.9923 19.7163 22.9923H19.4502C19.3505 22.9923 19.3582 22.93 19.3582 22.8889V21.6275C19.3582 21.5848 19.3526 21.5202 19.4502 21.5202H19.9093C19.9777 21.5202 20.0749 21.5044 20.1848 21.7233C20.267 21.8986 20.4411 22.2625 20.56 22.4553C20.6829 22.2625 20.8608 21.8986 20.943 21.7233C21.0504 21.5044 21.1458 21.5202 21.222 21.5202H21.6789C21.773 21.5202 21.7632 21.5848 21.7632 21.6275V22.8889C21.7632 22.9299 21.7765 22.9923 21.6789 22.9923H21.4115C21.314 22.9923 21.3216 22.93 21.3216 22.8889V21.9717C21.1364 22.3031 20.8664 22.8089 20.7646 22.9923H20.3568ZM23.228 22.6174C23.4493 22.6174 23.441 22.3895 23.441 22.2368C23.441 22.1001 23.4723 21.8853 23.1852 21.8853H22.6984C22.4134 21.8853 22.4467 22.1001 22.4467 22.2368C22.4467 22.3895 22.4331 22.6174 22.6539 22.6174H23.228ZM22.353 22.9962C21.9174 22.9962 21.9368 22.5293 21.9368 22.2275C21.9368 21.95 21.9055 21.5167 22.4506 21.5125H23.418C23.9648 21.5125 23.9293 21.9517 23.9293 22.2275C23.9293 22.5292 23.9511 22.9962 23.5092 22.9962H22.353ZM24.6576 22.9923C24.0984 22.9923 24.089 22.5664 24.089 22.4023V21.6275C24.089 21.5805 24.0851 21.518 24.1848 21.518H24.4741C24.5674 21.518 24.5618 21.5848 24.5618 21.6276V22.4022C24.5618 22.4574 24.5717 22.6054 24.7748 22.6054H25.2593C25.4585 22.6054 25.4701 22.4575 25.4701 22.4023V21.6275C25.4701 21.5848 25.4641 21.518 25.5578 21.518H25.8488C25.9544 21.518 25.9451 21.5848 25.9451 21.6276V22.4022C25.9451 22.5664 25.9352 22.9923 25.3742 22.9923H24.6576ZM27.3001 21.909H26.716C26.6184 21.909 26.6223 21.9424 26.6223 21.9719V22.2353H27.2239C27.5152 22.2353 27.5152 22.1625 27.5152 22.0865C27.5152 21.9343 27.5037 21.909 27.3001 21.909ZM26.2547 21.5205H27.5679C27.7437 21.5205 28 21.5186 28 21.9929C28 22.3032 27.9333 22.3187 27.7925 22.4145C28.0292 22.4555 27.9979 22.7578 27.9979 22.9143C27.9979 22.9942 27.9687 22.9926 27.9448 22.9926H27.5602C27.4802 22.9926 27.4993 22.8655 27.4993 22.7993C27.4993 22.6175 27.398 22.6257 27.3591 22.6257H26.7922C26.7378 22.5316 26.6322 22.3208 26.6322 22.3208V22.9318C26.6322 22.9849 26.579 22.9926 26.5598 22.9926H26.1735C26.1944 22.9926 26.1341 22.9964 26.1341 22.9434V21.6474C26.1341 21.5555 26.1988 21.5205 26.2547 21.5205Z" fill="#1A2530"/>
</svg>
