<svg width="24" height="24" viewBox="0 0 24 24" fill="none" xmlns="http://www.w3.org/2000/svg">
<rect width="24" height="24" rx="12" fill="#5B9EE1"/>
<path d="M8.66658 8V8.6C8.8672 8.6 9.05454 8.49974 9.16582 8.33282L8.66658 8ZM9.6041 6.59373L9.10487 6.26091V6.26091L9.6041 6.59373ZM14.3957 6.59373L14.895 6.26091L14.3957 6.59373ZM15.3333 8L14.834 8.33282C14.9453 8.49974 15.1326 8.6 15.3333 8.6V8ZM13.3999 13C13.3999 13.7732 12.7731 14.4 11.9999 14.4V15.6C13.4359 15.6 14.5999 14.4359 14.5999 13H13.3999ZM11.9999 14.4C11.2267 14.4 10.5999 13.7732 10.5999 13H9.39992C9.39992 14.4359 10.564 15.6 11.9999 15.6V14.4ZM10.5999 13C10.5999 12.2268 11.2267 11.6 11.9999 11.6V10.4C10.564 10.4 9.39992 11.5641 9.39992 13H10.5999ZM11.9999 11.6C12.7731 11.6 13.3999 12.2268 13.3999 13H14.5999C14.5999 11.5641 13.4359 10.4 11.9999 10.4V11.6ZM9.16582 8.33282L10.1033 6.92655L9.10487 6.26091L8.16735 7.66718L9.16582 8.33282ZM10.7135 6.6H13.2863V5.4H10.7135V6.6ZM13.8965 6.92655L14.834 8.33282L15.8325 7.66718L14.895 6.26091L13.8965 6.92655ZM13.2863 6.6C13.5315 6.6 13.7605 6.72254 13.8965 6.92655L14.895 6.26091C14.5364 5.72306 13.9328 5.4 13.2863 5.4V6.6ZM10.1033 6.92655C10.2393 6.72254 10.4683 6.6 10.7135 6.6V5.4C10.0671 5.4 9.46343 5.72306 9.10487 6.26091L10.1033 6.92655ZM18.0666 10.6667V15.3333H19.2666V10.6667H18.0666ZM15.9999 17.4H7.99992V18.6H15.9999V17.4ZM5.93325 15.3333V10.6667H4.73325V15.3333H5.93325ZM7.99992 17.4C6.85853 17.4 5.93325 16.4747 5.93325 15.3333H4.73325C4.73325 17.1375 6.19579 18.6 7.99992 18.6V17.4ZM18.0666 15.3333C18.0666 16.4747 17.1413 17.4 15.9999 17.4V18.6C17.804 18.6 19.2666 17.1375 19.2666 15.3333H18.0666ZM15.9999 8.6C17.1413 8.6 18.0666 9.52528 18.0666 10.6667H19.2666C19.2666 8.86254 17.804 7.4 15.9999 7.4V8.6ZM7.99992 7.4C6.19579 7.4 4.73325 8.86254 4.73325 10.6667H5.93325C5.93325 9.52528 6.85853 8.6 7.99992 8.6V7.4ZM7.99992 8.6H8.66658V7.4H7.99992V8.6ZM15.9999 7.4H15.3333V8.6H15.9999V7.4Z" fill="white"/>
<circle cx="11.9999" cy="8.00001" r="0.666667" fill="white"/>
</svg>
